<?xml version="1.0" encoding="utf-8"?>
<!-- Generator: Adobe Illustrator 24.1.2, SVG Export Plug-In . SVG Version: 6.00 Build 0)  -->
<svg version="1.1" id="Layer_1" xmlns="http://www.w3.org/2000/svg" xmlns:xlink="http://www.w3.org/1999/xlink" x="0px" y="0px"
	 viewBox="0 0 1400 980" style="enable-background:new 0 0 1400 980;" xml:space="preserve">
<g>
	<g>
		<path d="M555.2,455.8c-53.5,0-81.4-41.5-82.5-43.3c-6.9-10.5-3.9-24.5,6.5-31.4c3.7-2.4,8-3.7,12.4-3.7c7.6,0,14.7,3.8,18.9,10.1
			c0.6,0.9,16.1,22.9,44.7,22.9c26.6,0,37.1-20,37.2-20.2c3.7-7.8,11.8-12.9,20.4-12.9c3.4,0,6.7,0.7,9.8,2.2
			c5.5,2.6,9.6,7.2,11.6,12.9c2,5.7,1.7,11.9-0.9,17.3C632.4,411.7,610.7,455.8,555.2,455.8z M491.5,383.3c-3.3,0-6.4,1-9.2,2.8
			c-3.7,2.5-6.3,6.2-7.2,10.6c-0.9,4.4-0.1,8.9,2.4,12.6c1.1,1.7,27.2,40.6,77.6,40.6c51.9,0,72-40.8,72.8-42.6
			c1.9-4,2.2-8.6,0.7-12.8c-1.5-4.2-4.5-7.6-8.6-9.5c-2.3-1.1-4.7-1.6-7.2-1.6c-6.4,0-12.4,3.7-15.1,9.5
			c-0.1,0.2-12.2,23.5-42.6,23.5c-31.7,0-48.9-24.5-49.6-25.5C502.4,386.1,497.2,383.3,491.5,383.3z"/>
	</g>
	<path d="M553.7,501.3c-12.2,0-21.7-13.8-21.7-25.6c0-0.2,0-0.4,0-0.6c0-0.1,0-0.2,0-0.4v-23.4c0-1.6,1.3-3,3-3s3,1.3,3,3v22.9
		c0,0.2,0.1,0.4,0,0.7l0,0.4c0,0.1,0,0.3,0,0.5c0,8.9,7.3,19.7,15.8,19.7s15.8-10.8,15.8-19.7c0-0.2,0-0.3,0-0.5l0-0.4
		c0-0.2,0-0.5,0-0.7v-23c0-1.6,1.3-3,3-3c1.6,0,3,1.3,3,3v23.5c0,0.1,0,0.2,0,0.4c0,0.2,0,0.4,0,0.6
		C575.4,487.6,566,501.3,553.7,501.3z"/>
	<path d="M561.9,555.3h-16.3c-0.8,0-1.6-0.4-2.2-1c-0.6-0.6-0.8-1.5-0.7-2.3l6.4-54c0.2-1.5,1.4-2.6,2.9-2.6h3.6
		c1.5,0,2.8,1.1,2.9,2.6l6.4,54c0.1,0.8-0.2,1.7-0.7,2.3C563.6,555,562.7,555.3,561.9,555.3z M548.9,549.4h9.7l-4.8-40.9
		L548.9,549.4z"/>
	<path d="M572.5,474.2H535c-1.6,0-3-1.3-3-3s1.3-3,3-3h37.5c1.6,0,3,1.3,3,3C575.4,472.9,574.1,474.2,572.5,474.2z"/>
	<path d="M547.4,474.2c-1.6,0-3-1.3-3-3v-18.6c0-1.6,1.3-3,3-3s3,1.3,3,3v18.6C550.4,472.9,549,474.2,547.4,474.2z"/>
	<path d="M560.1,474.2c-1.6,0-3-1.3-3-3v-18.6c0-1.6,1.3-3,3-3c1.6,0,3,1.3,3,3v18.6C563,472.9,561.7,474.2,560.1,474.2z"/>
</g>
<g>
	<path d="M665.6,788.9c-39.9,0-65.6-25.1-65.6-63.9c0-35.8,13.2-53.2,40.3-53.2c13.7,0,28.6,4.4,41.8,8.3c9.5,2.8,18.4,5.4,24.1,5.4
		c33.8,0,51.8,9.5,55.2,29.1c1.5,9,5.4,54.5-69.8,71.2C682.4,787.9,673.7,788.9,665.6,788.9z M640.2,677.7
		c-14.8,0-34.4,4.9-34.4,47.3c0,35.2,23.4,58,59.7,58c7.7,0,16-1,24.6-2.9c70-15.5,66.6-56.4,65.2-64.4
		c-1.8-10.4-8.9-24.2-49.3-24.2c-6.5,0-15.4-2.6-25.8-5.7C667.5,682,653.1,677.7,640.2,677.7z"/>
	<path d="M665.5,812.4c-21.1,0-35-6.9-43.5-13.7c-14.3-11.4-22.1-29.2-22.1-50.1v-28.7c0-1.6,1.3-3,3-3s3,1.3,3,3v28.7
		c0,19.1,7.1,35.2,19.9,45.5c15.2,12.2,37.5,15.5,64.5,9.5c70-15.5,66.6-56.4,65.2-64.4c0-0.2,0-0.3,0-0.5v-18.9c0-1.6,1.3-3,3-3
		c1.6,0,3,1.3,3,3v18.6c1.6,9.5,4.7,54.4-69.8,70.9C681.8,811.5,673.2,812.4,665.5,812.4z"/>
	<path d="M700.8,741.6c-9.7,0-17.5-6.1-17.5-13.5c0-7.5,7.9-13.5,17.5-13.5s17.5,6.1,17.5,13.5C718.3,735.5,710.4,741.6,700.8,741.6
		z M700.8,720.5c-6.3,0-11.6,3.5-11.6,7.6c0,4.1,5.3,7.6,11.6,7.6c6.3,0,11.6-3.5,11.6-7.6C712.3,724,707,720.5,700.8,720.5z"/>
	<path d="M700.8,732.7c-4.2,0-7.5-2.6-7.5-5.9c0-1.6,1.3-3,3-3c1.5,0,2.7,1.1,2.9,2.5c0.3,0.2,0.8,0.4,1.6,0.4
		c0.8,0,1.4-0.2,1.6-0.4c0.2-1.4,1.4-2.5,2.9-2.5c1.6,0,3,1.3,3,3C708.3,730.1,705,732.7,700.8,732.7z"/>
	<path d="M630.2,751C630.2,751,630.2,751,630.2,751c-1.3,0-2.5-0.1-3.6-0.3c-10.9-1.7-18.3-27.8-16.3-41.3
		c2.3-14.9,17.8-26.3,30.3-27.2c0.4,0,0.8,0,1.3,0c13.1,0,49.9,12.5,51.5,13c1.1,0.4,1.8,1.3,2,2.4c0.1,1.1-0.4,2.2-1.3,2.8
		c-8.9,5.9-19,19.6-19.2,29.9c-0.2,10.7-20.8,15.4-23.1,15.9c-1.5,0.3-3.4,0.9-5.4,1.5C641.6,749.2,635.8,751,630.2,751z
		 M641.9,688.1c-0.3,0-0.6,0-0.9,0c-10.1,0.7-23.1,10.5-24.9,22.1c-2,12.9,5.8,33.7,11.3,34.6c0.8,0.1,1.8,0.2,2.7,0.2
		c4.7,0,9.8-1.6,14.3-3c2.1-0.7,4.2-1.3,5.9-1.7c8.8-1.9,18.4-6.5,18.4-10.2c0.2-10.5,8.5-23.4,17.3-31.2
		C675.5,695.6,651.3,688.1,641.9,688.1z"/>
	<path d="M737.9,727.2L737.9,727.2c-5,0-8.8-1.9-10.1-5.1c-1.8-4.5-12.5-11.9-17.3-14c-5.6-2.4-6.4-6.5-6-8.6c0.2-0.8,0.7-1.5,1.4-2
		c1.8-1,4.2-1.6,7.1-1.6c12.7,0,38.5,10.9,39.4,20.2c0.2,2.3-0.5,4.5-2.1,6.3C747.2,726,741.7,727.2,737.9,727.2z M711.6,702
		c0.3,0.2,0.8,0.5,1.3,0.7c4.7,2,17.6,10.1,20.5,17.2c0.2,0.5,1.8,1.3,4.6,1.3l0,0c3.2,0,6.6-1.1,8-2.7c0.6-0.7,0.7-1.3,0.6-1.7
		c-0.4-3.8-20.4-14.9-33.6-14.9C712.5,702,712,702,711.6,702z"/>
	<path d="M669.9,774.6c-21.5,0-38.1-5.2-40.5-12.8c-0.4-1.4,0.2-2.9,1.5-3.5c1.1-0.5,26-13.3,38.2-13.3l0.5,0
		c5.4,0.2,10.7,0.9,15.9,1.5c6,0.8,11.5,1.5,16.5,1.3c9.7-0.4,23.1-2.5,31.5-9.6c0.8-0.7,2-0.9,3-0.5c1,0.4,1.7,1.3,1.8,2.4
		c0.1,1,2.1,23.5-38.4,31.3C689.5,773.6,679.4,774.6,669.9,774.6z M636.7,762c4.1,3,15.1,6.7,33.2,6.7c9.2,0,18.9-1,28.9-2.9
		c22.1-4.3,29.7-12.9,32.3-18.8c-9.1,4.9-20.4,6.4-28.9,6.8c-5.4,0.2-11.3-0.5-17.5-1.3c-5-0.7-10.2-1.3-15.3-1.5l-0.3,0
		C661.2,751,645.2,757.9,636.7,762z"/>
</g>
<g>
	<path d="M334.1,839c-4.2,0-8.3-1.6-11.5-4.8c-1.9-1.9-3.3-4.2-4-6.8c-2.5-0.8-4.9-2.1-6.8-4c-3.1-3.1-4.8-7.2-4.8-11.5
		c0-4.3,1.7-8.4,4.8-11.5c4.6-4.6,11.6-6,17.5-3.6l28.4-28.4c1.2-1.2,3-1.2,4.2,0c1.2,1.2,1.2,3,0,4.2L332,802.5
		c-0.9,0.9-2.4,1.1-3.6,0.5c-4-2.3-9.2-1.7-12.5,1.6c-2,2-3,4.5-3,7.3c0,2.8,1.1,5.4,3,7.3c1.5,1.5,3.4,2.5,5.5,2.9
		c1.2,0.2,2.2,1.2,2.4,2.4c0.4,2.1,1.4,4,2.9,5.5c4,4,10.6,4,14.6,0c3.4-3.4,4-8.6,1.5-12.7c-0.7-1.2-0.5-2.7,0.4-3.6L373,784
		c1.2-1.2,3-1.2,4.2,0s1.2,3,0,4.2L349,816.4c2.6,6,1.3,13.1-3.5,17.8C342.4,837.4,338.2,839,334.1,839z"/>
	<path d="M382.6,790.3L382.6,790.3c-7.3,0-13.5-2.7-18.9-8.1c-10.4-10.4-10.6-26-0.5-43.9c0.3-0.5,35-55.5,42.1-61.9l0,0
		c8.6-8.6,20-13.3,32.1-13.3c12.1,0,23.5,4.7,32.1,13.3c8.6,8.6,13.3,20,13.3,32.1c0,12-4.7,23.4-13.1,31.9
		c-9.5,13.1-61.7,42.1-62.2,42.4C397.1,788,389.5,790.3,382.6,790.3z M409,681c-4.4,3.7-37.9,55.4-40.6,60.2
		c-6.2,10.8-11.2,26-0.5,36.8c4.3,4.3,9.1,6.4,14.7,6.4c5.8,0,12.9-2.2,22.2-6.9c7.9-4.3,53-30.3,60.2-40.7c0.1-0.1,0.2-0.3,0.3-0.4
		c7.5-7.5,11.6-17.4,11.6-27.9s-4.1-20.5-11.6-27.9c-7.5-7.5-17.4-11.6-27.9-11.6c-10.5,0-20.5,4.1-27.9,11.6
		C409.3,680.7,409.1,680.9,409,681z"/>
</g>
<g>
	<path d="M788.3,486.7c-20.8,0-37.8-17-37.8-37.8s17-37.8,37.8-37.8s37.8,17,37.8,37.8C826.1,469.8,809.1,486.7,788.3,486.7z
		 M788.3,417.1c-17.6,0-31.9,14.3-31.9,31.9c0,17.6,14.3,31.9,31.9,31.9c17.6,0,31.9-14.3,31.9-31.9
		C820.1,431.4,805.8,417.1,788.3,417.1z"/>
	<path d="M757,515.4c-1.6,0-2.9-1.3-3-2.9l-0.9-26.3c0-0.8,0.3-1.5,0.8-2.1c0.5-0.6,1.3-0.9,2.1-0.9l69.6-2.4c1.6-0.1,3,1.2,3.1,2.9
		l0.9,26.3c0,0.8-0.3,1.5-0.8,2.1c-0.5,0.6-1.3,0.9-2.1,0.9l-69.6,2.4C757,515.4,757,515.4,757,515.4z M759.1,489l0.7,20.4l63.7-2.2
		l-0.7-20.4L759.1,489z"/>
	<path d="M752.4,417.1c-1.6,0-2.9-1.3-3-2.9l-0.5-15.8c0-0.8,0.3-1.5,0.8-2.1c0.5-0.6,1.3-0.9,2.1-0.9l69.6-2.4
		c1.6-0.1,3,1.2,3.1,2.9l0.5,15.8c0,0.8-0.3,1.5-0.8,2.1c-0.5,0.6-1.3,0.9-2.1,0.9l-69.6,2.4C752.4,417.1,752.4,417.1,752.4,417.1z
		 M754.9,401.1l0.3,9.9l63.7-2.2l-0.3-9.9L754.9,401.1z"/>
	<path d="M788.3,558.7c-31.4,0-56.9-19.8-56.9-44.2c0-1.6,1.3-3,3-3h107.9c1.6,0,3,1.3,3,3C845.2,538.9,819.7,558.7,788.3,558.7z
		 M737.4,517.4c2,19.7,24.1,35.3,50.9,35.3s48.8-15.6,50.9-35.3H737.4z"/>
	<path d="M786.9,400c-1.6,0-3-1.3-3-3v-56.3c0-1.6,1.3-3,3-3c1.6,0,3,1.3,3,3v56.3C789.9,398.7,788.5,400,786.9,400z"/>
</g>
<g>
	<g>
		<path d="M1142.8,403.9c-0.8,0-1.5-0.3-2.1-0.9l-29.5-29.5c-1.2-1.2-1.2-3,0-4.2s3-1.2,4.2,0l29.5,29.5c1.2,1.2,1.2,3,0,4.2
			C1144.3,403.6,1143.6,403.9,1142.8,403.9z"/>
		<path d="M1118.9,427.7c-0.8,0-1.5-0.3-2.1-0.9l-29.5-29.5c-1.2-1.2-1.2-3,0-4.2c1.2-1.2,3-1.2,4.2,0l29.5,29.5
			c1.2,1.2,1.2,3,0,4.2C1120.5,427.4,1119.7,427.7,1118.9,427.7z"/>
		<path d="M1119.3,420.8c-0.8,0-1.5-0.3-2.1-0.9l-22.9-22.9c-0.6-0.6-0.9-1.3-0.9-2.1s0.3-1.5,0.9-2.1l16.1-16.1
			c1.2-1.2,3-1.2,4.2,0l22.9,22.9c0.6,0.6,0.9,1.3,0.9,2.1s-0.3,1.5-0.9,2.1l-16.1,16.1C1120.8,420.5,1120,420.8,1119.3,420.8z
			 M1100.5,394.9l18.8,18.8l11.9-11.9l-18.8-18.8L1100.5,394.9z"/>
		<path d="M1090.3,441.8c-4.8,0-9.3-1.9-12.7-5.3c-3.4-3.4-5.3-7.9-5.3-12.7c0-4.8,1.9-9.3,5.3-12.7c3.4-3.4,7.9-5.3,12.7-5.3
			c4.8,0,9.3,1.9,12.7,5.3c7,7,7,18.4,0,25.4C1099.6,440,1095.1,441.8,1090.3,441.8z M1090.3,411.8c-3.2,0-6.3,1.3-8.5,3.5
			c-2.3,2.3-3.5,5.3-3.5,8.5s1.3,6.3,3.5,8.5c2.3,2.3,5.3,3.5,8.5,3.5c3.2,0,6.2-1.3,8.5-3.5c4.7-4.7,4.7-12.4,0-17.1
			C1096.6,413,1093.5,411.8,1090.3,411.8z"/>
		<path d="M1090.3,456.4c-0.8,0-1.5-0.3-2.1-0.9l-29.5-29.5c-1.2-1.2-1.2-3,0-4.2s3-1.2,4.2,0l29.5,29.5c1.2,1.2,1.2,3,0,4.2
			C1091.8,456.1,1091.1,456.4,1090.3,456.4z"/>
		<path d="M1066.5,480.2c-0.8,0-1.5-0.3-2.1-0.9l-29.5-29.5c-1.2-1.2-1.2-3,0-4.2c1.2-1.2,3-1.2,4.2,0l29.5,29.5
			c1.2,1.2,1.2,3,0,4.2C1068,479.9,1067.2,480.2,1066.5,480.2z"/>
		<path d="M1066.8,473.3c-0.8,0-1.5-0.3-2.1-0.9l-22.9-23c-1.2-1.2-1.2-3,0-4.2l16.1-16.1c1.2-1.2,3-1.2,4.2,0l22.9,22.9
			c1.2,1.2,1.2,3,0,4.2l-16.1,16.1C1068.3,473,1067.6,473.3,1066.8,473.3z M1048,447.4l18.8,18.8l11.9-12l-18.8-18.8L1048,447.4z"/>
		<path d="M1037.8,494.3c-4.8,0-9.3-1.9-12.7-5.3c-3.4-3.4-5.3-7.9-5.3-12.7s1.9-9.3,5.3-12.7c3.4-3.4,7.9-5.3,12.7-5.3
			c4.8,0,9.3,1.9,12.7,5.3c3.4,3.4,5.3,7.9,5.3,12.7s-1.9,9.3-5.3,12.7C1047.2,492.4,1042.6,494.3,1037.8,494.3z M1037.8,464.3
			c-3.2,0-6.3,1.3-8.5,3.5c-2.3,2.3-3.5,5.3-3.5,8.5c0,3.2,1.3,6.3,3.5,8.5c2.3,2.3,5.3,3.5,8.5,3.5c3.2,0,6.3-1.3,8.5-3.5
			c2.3-2.3,3.5-5.3,3.5-8.5c0-3.2-1.3-6.2-3.5-8.5C1044.1,465.5,1041.1,464.3,1037.8,464.3z"/>
		<path d="M1127.7,389.5c-0.8,0-1.5-0.3-2.1-0.9c-1.2-1.2-1.2-3,0-4.2l31.4-31.4c1.2-1.2,3-1.2,4.2,0c1.2,1.2,1.2,3,0,4.2
			l-31.3,31.4C1129.2,389.2,1128.4,389.5,1127.7,389.5z"/>
		<path d="M1000.9,516.3c-0.8,0-1.5-0.3-2.1-0.9c-1.2-1.2-1.2-3,0-4.2l26.4-26.4c1.2-1.2,3-1.2,4.2,0s1.2,3,0,4.2l-26.4,26.4
			C1002.4,516,1001.6,516.3,1000.9,516.3z"/>
		<path d="M990.9,539.4c-4.3,0-8.3-1.7-11.4-4.7c-3-3-4.7-7.1-4.7-11.3c0-4.3,1.7-8.3,4.7-11.4c3-3,7.1-4.7,11.3-4.7
			c4.3,0,8.3,1.7,11.4,4.7c1.2,1.2,1.2,3,0,4.2c-1.2,1.2-3,1.2-4.2,0c-1.9-1.9-4.5-3-7.2-3c-2.7,0-5.2,1.1-7.2,3
			c-1.9,1.9-3,4.5-3,7.2c0,2.7,1.1,5.3,3,7.2s4.5,3,7.2,3s5.3-1.1,7.2-3c0.8-0.8,1.5-1.8,2-2.9c0.7-1.5,2.5-2.1,3.9-1.4
			c1.5,0.7,2.1,2.5,1.4,3.9c-0.8,1.7-1.9,3.2-3.2,4.5C999.2,537.7,995.1,539.4,990.9,539.4z"/>
	</g>
	<g>
		<path d="M1179.8,449.4c-0.8,0-1.5-0.3-2.1-0.9l-29.5-29.5c-1.2-1.2-1.2-3,0-4.2c1.2-1.2,3-1.2,4.2,0l29.5,29.5
			c1.2,1.2,1.2,3,0,4.2C1181.3,449.1,1180.5,449.4,1179.8,449.4z"/>
		<path d="M1155.9,473.3c-0.8,0-1.5-0.3-2.1-0.9l-29.5-29.5c-1.2-1.2-1.2-3,0-4.2s3-1.2,4.2,0l29.5,29.5c1.2,1.2,1.2,3,0,4.2
			C1157.4,473,1156.7,473.3,1155.9,473.3z"/>
		<path d="M1156.2,466.4c-0.8,0-1.5-0.3-2.1-0.9l-22.9-22.9c-0.6-0.6-0.9-1.3-0.9-2.1s0.3-1.5,0.9-2.1l16.1-16.1
			c1.2-1.2,3-1.2,4.2,0l22.9,22.9c0.6,0.6,0.9,1.3,0.9,2.1s-0.3,1.5-0.9,2.1l-16.1,16.1C1157.8,466.1,1157,466.4,1156.2,466.4z
			 M1137.5,440.5l18.8,18.8l11.9-11.9l-18.8-18.8L1137.5,440.5z"/>
		<path d="M1127.3,487.4c-4.8,0-9.3-1.9-12.7-5.3c-3.4-3.4-5.3-7.9-5.3-12.7c0-4.8,1.9-9.3,5.3-12.7c3.4-3.4,7.9-5.3,12.7-5.3
			c4.8,0,9.3,1.9,12.7,5.3c3.4,3.4,5.3,7.9,5.3,12.7c0,4.8-1.9,9.3-5.3,12.7C1136.6,485.5,1132.1,487.4,1127.3,487.4z M1127.3,457.4
			c-3.2,0-6.3,1.3-8.5,3.5c-2.3,2.3-3.5,5.3-3.5,8.5c0,3.2,1.3,6.3,3.5,8.5c2.3,2.3,5.3,3.5,8.5,3.5s6.3-1.3,8.5-3.5
			c2.3-2.3,3.5-5.3,3.5-8.5s-1.3-6.3-3.5-8.5C1133.5,458.6,1130.5,457.4,1127.3,457.4z"/>
		<path d="M1127.3,501.9c-0.8,0-1.5-0.3-2.1-0.9l-29.5-29.5c-1.2-1.2-1.2-3,0-4.2s3-1.2,4.2,0l29.5,29.5c1.2,1.2,1.2,3,0,4.2
			C1128.8,501.6,1128,501.9,1127.3,501.9z"/>
		<path d="M1103.4,525.8c-0.8,0-1.5-0.3-2.1-0.9l-29.5-29.5c-1.2-1.2-1.2-3,0-4.2s3-1.2,4.2,0l29.5,29.5c1.2,1.2,1.2,3,0,4.2
			C1104.9,525.5,1104.2,525.8,1103.4,525.8z"/>
		<path d="M1103.8,518.8c-0.8,0-1.5-0.3-2.1-0.9l-22.9-22.9c-0.6-0.6-0.9-1.3-0.9-2.1s0.3-1.5,0.9-2.1l16.1-16.1
			c1.2-1.2,3-1.2,4.2,0l22.9,22.9c1.2,1.2,1.2,3,0,4.2l-16.1,16.1C1105.3,518.5,1104.5,518.8,1103.8,518.8z M1085,492.9l18.8,18.8
			l11.9-11.9l-18.8-18.8L1085,492.9z"/>
		<path d="M1074.8,539.9c-4.8,0-9.3-1.9-12.7-5.3c-3.4-3.4-5.3-7.9-5.3-12.7c0-4.8,1.9-9.3,5.3-12.7c3.4-3.4,7.9-5.3,12.7-5.3
			c4.8,0,9.3,1.9,12.7,5.3c3.4,3.4,5.3,7.9,5.3,12.7c0,4.8-1.9,9.3-5.3,12.7C1084.1,538,1079.6,539.9,1074.8,539.9z M1074.8,509.8
			c-3.2,0-6.3,1.3-8.5,3.5c-2.3,2.3-3.5,5.3-3.5,8.5c0,3.2,1.3,6.3,3.5,8.5c2.3,2.3,5.3,3.5,8.5,3.5c3.2,0,6.3-1.3,8.5-3.5
			c2.3-2.3,3.5-5.3,3.5-8.5c0-3.2-1.3-6.2-3.5-8.5C1081,511.1,1078,509.8,1074.8,509.8z"/>
		<path d="M1165,434.7c-0.8,0-1.5-0.3-2.1-0.9c-1.2-1.2-1.2-3,0-4.2l31-31c1.2-1.2,3-1.2,4.2,0c1.2,1.2,1.2,3,0,4.2l-31,31
			C1166.5,434.4,1165.7,434.7,1165,434.7z"/>
		<path d="M1037.8,561.8c-0.8,0-1.5-0.3-2.1-0.9c-1.2-1.2-1.2-3,0-4.2l26.4-26.4c1.2-1.2,3-1.2,4.2,0s1.2,3,0,4.2l-26.4,26.4
			C1039.3,561.5,1038.6,561.8,1037.8,561.8z"/>
		<path d="M1027.8,584.9c-4.3,0-8.3-1.7-11.4-4.7c-6.3-6.3-6.3-16.4,0-22.7c3-3,7.1-4.7,11.4-4.7c4.3,0,8.3,1.7,11.3,4.7
			c1.2,1.2,1.2,3,0,4.2s-3,1.2-4.2,0c-1.9-1.9-4.5-3-7.2-3c-2.7,0-5.3,1.1-7.2,3c-4,4-4,10.4,0,14.3c1.9,1.9,4.5,3,7.2,3
			c2.7,0,5.3-1.1,7.2-3c0.8-0.8,1.5-1.8,2-2.9c0.7-1.5,2.5-2.1,3.9-1.4c1.5,0.7,2.1,2.5,1.4,3.9c-0.8,1.7-1.9,3.2-3.2,4.5
			C1036.1,583.3,1032.1,584.9,1027.8,584.9z"/>
	</g>
</g>
<g>
	<path d="M864,794.3C864,794.3,864,794.3,864,794.3c-3.5,0-6.4-1.5-8-4c-1.6-2.5-1.7-5.5-0.4-8.4c9.3-20.2,46.3-75,105.3-86.3
		c14.3-2.7,28.1-4.1,40.9-4.1c49.6,0,70.2,20.4,71,21.2c0.7,0.7,1,1.7,0.8,2.6c-9,49.2-70.2,61.2-135,66.9
		c-13.6,1.2-50.9,7.9-71.9,11.8C865.7,794.2,864.8,794.3,864,794.3z M1001.7,697.4c-12.4,0-25.8,1.4-39.8,4
		c-50.2,9.6-88.6,56-101,82.9c-0.5,1-0.5,2,0,2.8c0.5,0.8,1.6,1.3,3.1,1.3l0,0c0.5,0,1-0.1,1.6-0.2c21.1-3.9,58.6-10.7,72.5-11.9
		c61.7-5.4,120-16.5,129.4-60.4C1062.6,711.9,1042.4,697.4,1001.7,697.4z"/>
	<path d="M846.2,831.9c-0.4,0-0.8-0.1-1.2-0.3c-0.7-0.3-1.3-0.9-1.6-1.7c-3.3-9-8.1-14.9-14.4-17.4c-9.1-3.6-18.4,0.8-18.5,0.9
		c-1,0.5-2.2,0.4-3.1-0.3c-0.9-0.7-1.3-1.9-1.1-3C815,772,861.6,773,862,773c1.6,0.1,2.9,1.4,2.9,3c-0.1,1.6-1.5,2.9-3,2.9
		c-1.6-0.1-37.7-0.8-48.1,27.2c4.4-1.1,10.9-1.7,17.5,0.9c7.2,2.8,12.7,8.8,16.6,17.8c6.2-3.4,20.8-13.6,21.7-35
		c0.1-1.6,1.5-2.9,3.1-2.8c1.6,0.1,2.9,1.4,2.8,3.1c-1.3,30.6-27,41.2-28.1,41.6C847,831.8,846.6,831.9,846.2,831.9z"/>
	<path d="M1011.2,770.4c-0.5,0-1-0.1-1.4-0.4c-47.2-26.4-20.6-76.2-20.3-76.7c0.8-1.4,2.6-2,4-1.2c1.4,0.8,2,2.6,1.2,4
		c-1,1.8-24,45.2,18,68.7c1.4,0.8,1.9,2.6,1.1,4C1013.2,769.9,1012.2,770.4,1011.2,770.4z"/>
	<path d="M1022.3,720C1022.3,720,1022.3,720,1022.3,720c-2.2,0-4.2-0.8-5.7-2.1c-1.6-1.4-2.5-3.4-2.5-5.5c0-4.1,3.7-7.4,8.1-7.4
		c4.6,0,8.2,3.4,8.2,7.5C1030.4,716.7,1026.8,720,1022.3,720z M1022.3,711c-1.2,0-2.2,0.7-2.2,1.6c0,0.4,0.3,0.8,0.5,1
		c0.4,0.4,1.1,0.6,1.7,0.6l0,3v-3c1.2,0,2.2-0.7,2.2-1.6C1024.5,711.7,1023.5,711,1022.3,711z"/>
	<path d="M1039,731.8c-1.5,0-2.8-1.1-2.9-2.6c-0.2-1.6,1-3.1,2.6-3.3c0.2,0,16.2-2.1,30.1-13.4c1.3-1,3.1-0.8,4.2,0.4
		c1,1.3,0.8,3.1-0.4,4.2c-15.3,12.5-32.5,14.6-33.2,14.7C1039.2,731.8,1039.1,731.8,1039,731.8z"/>
	<path d="M968.3,758.6c-3.8,0-7-0.9-9.7-2.6c-9-5.7-8.4-19.1-8.2-24.1c0-0.5,0-0.9,0-1.2c0-2.3,0-8.3,34-8.1c1.6,0,2.9,1.3,2.9,3
		c0,1.6-1.3,2.9-3,2.9c-0.3,0-0.8,0-1.1,0c-12.5,0-24.4,1.3-27,2.9c0,0.2,0,0.5,0,0.8c-0.2,4.1-0.6,14.9,5.5,18.8
		c5.2,3.3,14.7,1.5,27.6-5.1c1.5-0.7,3.2-0.2,4,1.3c0.8,1.5,0.2,3.2-1.3,4C982.6,756.2,974.7,758.6,968.3,758.6z"/>
	<path d="M871,764.7c-1.5,0-2.8-1.1-2.9-2.6c-7.2-64.2,89.8-90.7,93.9-91.8c1.6-0.4,3.2,0.5,3.6,2l6.9,24c0.4,1.6-0.5,3.2-2,3.7
		c-1.6,0.4-3.2-0.5-3.7-2l-6-21.1c-15.8,4.8-92.7,31.2-86.7,84.6c0.2,1.6-1,3.1-2.6,3.3C871.3,764.7,871.1,764.7,871,764.7z"/>
	<path d="M967.3,795c-0.5,0-0.8,0-0.9,0c-1,0-1.9-0.5-2.5-1.4c-0.5-0.8-0.6-1.9-0.2-2.8l7.9-16.9c0.7-1.5,2.5-2.1,3.9-1.4
		c1.5,0.7,2.1,2.5,1.4,3.9l-5.9,12.6c4.2-0.2,10.3-0.6,15-1.9c5.5-1.5,9.9-13.4,11-17.5c0.4-1.6,2.1-2.5,3.6-2.1
		c1.6,0.4,2.5,2.1,2.1,3.6c-0.5,1.9-5.5,19-15.1,21.6C980.3,794.8,970.3,795,967.3,795z"/>
	<path d="M911.9,799.1c-4.4,0-8.5-0.5-8.8-0.5c-1-0.1-1.9-0.8-2.4-1.8c-0.4-1-0.3-2.1,0.3-2.9l9.6-12.8c1-1.3,2.8-1.6,4.1-0.6
		c1.3,1,1.6,2.8,0.6,4.1l-6.3,8.5c2.7,0.1,5.7,0.1,7.8-0.3c2.4-0.5,9.5-8.1,14.7-14.9c1-1.3,2.8-1.5,4.1-0.6c1.3,1,1.5,2.8,0.6,4.1
		c-2.8,3.7-12.5,16-18.2,17.1C916.2,799,914,799.1,911.9,799.1z"/>
</g>
<g>
	<path d="M602.9,254.8c-5.1,0-8.6-1.8-8.8-1.9c-6.9-3.6-5.7-17.6-5.4-20.4c0.2-1.6,1.7-2.8,3.3-2.6c1.6,0.2,2.8,1.7,2.6,3.3
		c-0.7,5.9,0.1,13.3,2.2,14.4c0.2,0.1,4.2,2,9.4,0.9c0.1,0,0.2-0.1,0.4-0.1c0.4-0.1,0.9-0.2,1.3-0.4c5.7-2,10.6-7.2,14.6-15.5
		c1-2,1.9-4.1,2.9-6.3c12-25.8,30.1-64.8,80.1-62.9c53.9,2.2,66.1,66.6,66.2,79.2c0,2.7-0.8,5-2.5,6.7c-4.4,4.4-13.4,4.6-31.8,4.6
		c-35.1,0-123.7,0.3-130,0.3C605.9,254.7,604.3,254.8,602.9,254.8z M701.9,169.3c-43.4,0-59.3,34.3-71,59.5c-1,2.2-2,4.3-3,6.4
		c-2.7,5.6-5.8,10-9.3,13.2c26.2-0.1,90.3-0.3,118.9-0.3c13.3,0,24.7,0,27.6-2.9c0.4-0.4,0.8-1,0.8-2.4
		c-0.1-11.7-11.2-71.4-60.6-73.4C704.2,169.3,703,169.3,701.9,169.3z"/>
	<path d="M633.4,172.9c-0.9,0-1.9-0.5-2.4-1.3c-0.9-1.4-0.6-3.2,0.8-4.1c9.2-6.3,17.7-9.9,33.7-9.9c8.8,0,23.4,3.3,26.9,6.8
		c1,1,1.2,2.1,1.2,2.8c0,1.6-1.3,2.9-3,2.9c0,0,0,0,0,0c-1.2,0-2.2-0.7-2.7-1.7c-2.4-1.6-13.9-4.8-22.4-4.8
		c-14.6,0-21.9,3.1-30.4,8.9C634.5,172.8,634,172.9,633.4,172.9z"/>
	<path d="M599.3,254.5c-1,0-2-0.5-2.5-1.4c-0.5-0.8-11.4-19-8.2-31.5c1-3.9,3.2-6.9,6.6-8.9c6.1-3.5,10.8-8.7,11.3-12.2
		c0.1-0.6-0.9-2.4-1.6-3.7c-2.5-4.6-6.6-12.4,0.7-22.4c4.3-5.9,9.2-9.2,14.6-10c8.8-1.3,16.6,4.8,20.8,8c0.6,0.5,1.3,1,1.8,1.4
		c0.7-0.3,1.9-1.1,2.8-1.7c6.2-3.8,17.8-11,29.1-2.1c1.3,1,1.5,2.9,0.5,4.2c-1,1.3-2.9,1.5-4.2,0.5c-8.1-6.4-16.7-1.1-22.3,2.5
		c-3,1.9-5,3.1-7,2.6c-1.3-0.3-2.4-1.2-4.3-2.7c-3.7-2.9-10-7.7-16.3-6.8c-3.8,0.5-7.4,3.1-10.7,7.6c-5.1,7-2.7,11.7-0.3,16.2
		c1.3,2.5,2.5,4.8,2.2,7.3c-0.9,6.6-8.2,13-14.2,16.5c-2,1.2-3.2,2.9-3.9,5.2c-2.1,8.4,4.7,22.3,7.5,27c0.8,1.4,0.4,3.2-1,4.1
		C600.3,254.4,599.8,254.5,599.3,254.5z"/>
</g>
<g>
	<path d="M337.6,215.5c-1.1,0-2.2-0.7-2.7-1.7c-0.6-1.3-0.2-2.8,1-3.6l81.5-58.6c0.7-0.5,1.6-0.7,2.4-0.5l81.9,20.3
		c1.3,0.3,2.3,1.5,2.2,2.9c0,1.4-1,2.6-2.3,2.9l-163.3,38.3C338,215.5,337.8,215.5,337.6,215.5z M419.7,157.1l-68.3,49.2l136.9-32.1
		L419.7,157.1z"/>
	<path d="M337.6,233.7c-0.7,0-1.3-0.2-1.8-0.6c-0.7-0.6-1.1-1.4-1.1-2.3v-18.2c0-1.6,1.3-3,3-3s3,1.3,3,3V227l157.4-37v-15.9
		c0-1.6,1.3-3,3-3c1.6,0,3,1.3,3,3v18.2c0,1.4-0.9,2.6-2.3,2.9l-163.3,38.3C338,233.7,337.8,233.7,337.6,233.7z"/>
	<path d="M478.5,227.9c-1.3,0-2.6-0.9-2.9-2.3c-0.4-1.6,0.6-3.2,2.2-3.6l10.4-2.4l-7.9-2c-1.6-0.4-2.6-2-2.2-3.6
		c0.4-1.6,2-2.6,3.6-2.2l19.8,4.9c1.3,0.3,2.3,1.5,2.2,2.9c0,1.4-1,2.6-2.3,2.9l-22.4,5.3C479,227.8,478.7,227.9,478.5,227.9z"/>
	<path d="M415.6,242.6c-1.3,0-2.6-0.9-2.9-2.3c-0.4-1.6,0.6-3.2,2.2-3.6l22.6-5.3c1.6-0.4,3.2,0.6,3.6,2.2s-0.6,3.2-2.2,3.6
		l-22.6,5.3C416,242.6,415.8,242.6,415.6,242.6z"/>
	<path d="M337.6,261c-1.1,0-2.2-0.7-2.7-1.7c-0.6-1.3-0.2-2.8,1-3.6l10.9-7.8c1.3-1,3.2-0.7,4.1,0.7c0.7,1,0.7,2.4,0,3.4l5.8-1.4
		c1.6-0.4,3.2,0.6,3.6,2.2c0.4,1.6-0.6,3.2-2.2,3.6l-19.8,4.6C338,260.9,337.8,261,337.6,261z"/>
	<path d="M337.6,279.2c-0.7,0-1.3-0.2-1.8-0.6c-0.7-0.6-1.1-1.4-1.1-2.3V258c0-1.6,1.3-3,3-3s3,1.3,3,3v14.5l157.4-37v-15.9
		c0-1.6,1.3-3,3-3c1.6,0,3,1.3,3,3v18.2c0,1.4-0.9,2.6-2.3,2.9l-163.3,38.3C338,279.1,337.8,279.2,337.6,279.2z"/>
	<path d="M475.8,238.7c0,0-0.1,0-0.1,0l-134.5-5c-1.6-0.1-2.9-1.4-2.8-3.1c0.1-1.6,1.4-2.9,3.1-2.8l132.1,4.9l4.7-18.7
		c0.4-1.6,2-2.6,3.6-2.2c1.6,0.4,2.6,2,2.2,3.6l-5.2,21C478.4,237.8,477.2,238.7,475.8,238.7z"/>
	<path d="M439.4,226.2c-4.4,0-9.1-1.8-13.5-3.5l-0.8-0.3c-3.5-1.3-4-1-5.2-0.2c-0.7,0.5-1.7,1.1-3.2,1.6c-4.5,1.5-13.6-3.3-17.3-5.4
		c-1.4-0.8-1.9-2.6-1.1-4c0.8-1.4,2.6-1.9,4-1.1c5.1,2.9,11.1,5.2,12.5,4.9c0.7-0.2,1.2-0.6,1.8-0.9c2.4-1.6,4.7-2.6,10.5-0.4
		l0.8,0.3c5.9,2.2,12.1,4.6,15.5,1.7c1.2-1,2.1-1.9,3-2.9c2.6-2.7,5.8-6.1,11.5-2.7c3,1.8,9.3,2.4,12.8,1.3c1.1-0.4,1.6-0.8,1.7-1
		c2.3-5.1,10.3-5.5,17.8-5.2c0.3,0,0.5,0,0.7,0c0.5-0.2,1.5-1.1,1.9-2.1c0.2-0.6,0.1-0.8,0-0.9c-2.1-3.2-6.4-8.1-6.4-8.2
		c-1.1-1.2-1-3.1,0.3-4.2c1.2-1.1,3.1-1,4.2,0.3c0.2,0.2,4.6,5.3,6.9,8.9c1.4,2.2,1.4,4.9,0.1,7.4c-1.3,2.3-4.1,4.8-6.7,4.8
		c-0.2,0-0.6,0-1.1,0c-11.1-0.4-12.1,1.6-12.2,1.7c-0.6,1.3-2,3.2-5.3,4.2c-5.1,1.6-13.2,0.8-17.6-1.9c-1.6-0.9-1.6-1-4.2,1.7
		c-1,1-2.1,2.2-3.5,3.3C444.9,225.4,442.2,226.2,439.4,226.2z"/>
	<path d="M377.2,258.7c-23.5,0-41.2-8.3-41.2-19.2c0-2.8,1.2-7.1,7-11c1.4-0.9,3.2-0.6,4.1,0.8c0.9,1.4,0.6,3.2-0.8,4.1
		c-2,1.4-4.5,3.6-4.5,6.1c0,6.3,15.1,13.3,35.3,13.3s35.3-7,35.3-13.3c0-1.4-0.7-2.8-2.1-4.2c-1.2-1.2-1.1-3,0-4.2
		c1.2-1.1,3-1.1,4.2,0c2.5,2.5,3.9,5.5,3.9,8.4C418.5,250.4,400.7,258.7,377.2,258.7z"/>
</g>
<g>
	<path d="M353.4,464.4H209.9c-0.9,0-1.8-0.4-2.4-1.2c-0.6-0.7-0.7-1.7-0.5-2.6c8.8-32.1,39.5-54.5,74.6-54.5
		c35.1,0,65.8,22.4,74.6,54.5c0.2,0.9,0.1,1.8-0.5,2.6C355.2,464,354.3,464.4,353.4,464.4z M213.9,458.5h135.5
		c-9.4-27.5-36.7-46.4-67.7-46.4C250.6,412.1,223.3,431,213.9,458.5z"/>
	<path d="M339.5,555.4h-124c-0.8,0-1.6-0.3-2.2-1c-5.7-6.2-6.1-13.3-6.5-20.2c-0.2-3.7-0.4-7.6-1.4-11.5c-0.2-0.9,0-1.8,0.5-2.6
		c0.6-0.7,1.4-1.2,2.3-1.2h138.8c0.9,0,1.8,0.4,2.3,1.1c0.6,0.7,0.8,1.7,0.5,2.6c-1,3.8-1.3,7.6-1.5,11.3c-0.5,7-1,14.2-6.8,20.5
		C341.2,555.1,340.4,555.4,339.5,555.4z M216.9,549.5h121.3c3.6-4.5,4-9.9,4.4-15.9c0.2-2.8,0.4-5.6,0.9-8.6H212
		c0.5,3.1,0.7,6.1,0.8,9C213.1,540.1,213.4,545.1,216.9,549.5z"/>
	<path d="M338.1,524.9h-119c-7.6,0-13.8-6.2-13.8-13.8c0-7.6,6.2-13.8,13.8-13.8h119c7.6,0,13.8,6.2,13.8,13.8
		C351.9,518.8,345.7,524.9,338.1,524.9z M219.1,503.3c-4.3,0-7.8,3.5-7.8,7.8c0,4.3,3.5,7.8,7.8,7.8h119c4.3,0,7.8-3.5,7.8-7.8
		c0-4.3-3.5-7.8-7.8-7.8H219.1z"/>
	<path d="M338.1,486h-119c-7.6,0-13.8-6.2-13.8-13.8c0-7.6,6.2-13.8,13.8-13.8h119c7.6,0,13.8,6.2,13.8,13.8
		C351.9,479.8,345.7,486,338.1,486z M219.1,464.4c-4.3,0-7.8,3.5-7.8,7.8c0,4.3,3.5,7.8,7.8,7.8h119c4.3,0,7.8-3.5,7.8-7.8
		c0-4.3-3.5-7.8-7.8-7.8H219.1z"/>
	<path d="M347.8,498.8c-7.1,0-18.2-5.4-19.7-6.2c-2.3-1.1-6-1.7-9.2-1.4c-3.4,0.3-5.8,1.4-6.6,3.1c-0.9,1.8-2.6,3.2-4.7,3.8
		c-7.5,2.3-20.7-3.3-27.3-7c-8-4.5-12.2-2.2-16.9,3.7c-1.5,1.9-3.9,2.9-7,3.2c-8.5,0.7-21.9-5.1-26.7-9.4c-2.6-2.3-5-1.7-9.1,2
		c-3.1,2.9-11.9,1.7-15.6,0c-3.6-1.7-4-4.2-3.9-5.5c0.4-6.2,10.3-6.7,12.2-6.7c0,0,0,0,0,0c1.6,0,2.9,1.3,3,2.9c0,1.6-1.3,3-2.9,3
		c-2.1,0-4.6,0.5-5.8,1c2.2,1,7.4,1.5,9,0.9c6.3-5.8,11.9-6.5,16.9-2.1c3.9,3.4,15.7,8.5,22.3,7.9c1.4-0.1,2.4-0.5,2.9-1
		c5.2-6.4,12.2-11.9,24.4-5.1c8.9,5,18.7,7.7,22.7,6.5c0.9-0.3,1.1-0.7,1.2-0.8c1.8-3.6,5.8-5.8,11.4-6.3c4.4-0.4,9.1,0.4,12.4,2
		c6.7,3.4,14.9,6,17.5,5.6c0.1-2.3-0.8-5.3-2.3-7.2c-0.8-1.1-1.6-1.5-2.1-1.5c-1.6-0.1-2.8-1.6-2.7-3.2c0.1-1.6,1.6-2.8,3.2-2.7
		c2.3,0.2,4.4,1.5,6.2,3.8c2.7,3.4,4.1,8.4,3.5,12.4c-0.3,1.6-1.2,2.9-2.6,3.6C350.4,498.6,349.2,498.8,347.8,498.8z"/>
	<path d="M215.5,503.3c-1.6,0-3-1.3-3-3v-11c0-1.6,1.3-3,3-3c1.6,0,3,1.3,3,3v11C218.5,502,217.2,503.3,215.5,503.3z"/>
	<path d="M340.8,503.3c-1.6,0-3-1.3-3-3v-5.8c0-1.6,1.3-3,3-3s3,1.3,3,3v5.8C343.8,502,342.5,503.3,340.8,503.3z"/>
	<path d="M324.2,515.9c-0.6,0-1.2-0.2-1.7-0.6c-7.7-5.6-40-10.6-51.8-12c-1.6-0.2-2.8-1.7-2.6-3.3c0.2-1.6,1.7-2.8,3.3-2.6
		c4.1,0.5,38,4.8,51.4,11.3l4.5-9.6c0.7-1.5,2.4-2.1,3.9-1.4c1.5,0.7,2.1,2.4,1.4,3.9l-5.8,12.6c-0.4,0.8-1.1,1.4-1.9,1.6
		C324.7,515.9,324.5,515.9,324.2,515.9z"/>
</g>
<g>
	<g>
		<path d="M888.7,261.1c-1,0-1.9-0.5-2.5-1.4c-4.2-6.6-24.8-39.9-17-51.8c3.3-5.1,23.9-19.7,44.6-19.7c20.7,0,41.2,14.7,44.6,19.7
			c7.8,11.8-12.5,44.2-16.6,50.6c-0.8,1.2-2.3,1.7-3.6,1.1c-4.7-2-12.1-3-20.7-3c-10.6,0-21.2,1.6-27.6,4.3
			C889.4,261,889,261.1,888.7,261.1z M913.8,194.1c-18.8,0-37.7,14.2-39.6,17.1c-4,6.1,6.4,28.3,15.7,43.3
			c7.1-2.4,17.3-3.8,27.5-3.8c8.1,0,15.3,0.9,20.6,2.6c9.1-14.5,19.4-36,15.4-42.1C951.5,208.3,932.6,194.1,913.8,194.1z"/>
		<path d="M949.8,262.3c-0.7,0-2.7,0-10.6-5.8c-1.3-1-1.6-2.8-0.7-4.1c1-1.3,2.8-1.6,4.1-0.7c2.5,1.8,5.2,3.5,6.7,4.3
			c3.9-3.9,17.1-21,18.3-27.8c0.9-5.1-8.2-9.8-11.5-11.1c-1.5-0.6-2.3-2.3-1.7-3.8c0.6-1.5,2.3-2.3,3.8-1.7
			c1.7,0.7,17,6.9,15.2,17.6C972.2,236.7,954.8,262.3,949.8,262.3z"/>
		<path d="M970.9,265.6c-7.2,0-16.1-3.3-19.5-4.7c-1.5-0.6-2.2-2.3-1.6-3.9c0.6-1.5,2.3-2.2,3.8-1.6c8.3,3.4,19.1,5.6,21.2,3.4
			c1.5-1.6-2.3-11.8-9.2-22.1c-0.9-1.4-0.5-3.2,0.8-4.1c1.4-0.9,3.2-0.5,4.1,0.8c4.5,6.8,14.5,23.2,8.5,29.4
			C977.2,264.8,974.3,265.6,970.9,265.6z"/>
		<path d="M875.8,262.3c-5,0-22.3-25.6-23.6-33c-1.8-10.7,13.4-16.9,15.2-17.6c1.5-0.6,3.2,0.2,3.8,1.7c0.6,1.5-0.2,3.2-1.7,3.8
			c-3.3,1.3-12.4,6-11.5,11.1c1.2,6.7,14.4,23.9,18.3,27.8c1.6-0.8,4.4-2.7,6.7-4.3c1.3-1,3.2-0.7,4.1,0.7c1,1.3,0.7,3.2-0.7,4.1
			C878.5,262.3,876.6,262.3,875.8,262.3z"/>
		<path d="M854.7,265.6c-3.3,0-6.3-0.7-8.2-2.7c-5.9-6.2,4-22.7,8.5-29.4c0.9-1.4,2.7-1.7,4.1-0.8c1.4,0.9,1.7,2.7,0.8,4.1
			c-6.9,10.3-10.7,20.5-9.2,22.1c2.1,2.2,12.8,0,21.1-3.4c1.5-0.6,3.2,0.1,3.9,1.6c0.6,1.5-0.1,3.2-1.6,3.9
			C870.8,262.3,861.9,265.6,854.7,265.6z"/>
	</g>
	<g>
		<path d="M981.3,229.7c-1.2,0-2.3-0.7-2.7-1.8c-4.8-11.7-23.8-28.6-35-33.3c-1.3-0.5-2.1-2-1.8-3.4c1.7-7.6,10.7-45.7,24.6-48.6
			c0.7-0.1,1.5-0.2,2.5-0.2c7.9,0,29.7,4.5,42.9,17.8c14.6,14.6,18.8,39.5,17.6,45.5c-2.9,13.9-40.1,22.4-47.5,24
			C981.7,229.7,981.5,229.7,981.3,229.7z M948.1,190.1C960,196,976.7,211,983,223.3c16.7-3.8,39.2-11.8,40.7-18.9
			c0.7-3.4-2.6-26.8-15.9-40.1c-12.2-12.2-32.7-16-38.8-16c-0.8,0-1.2,0.1-1.3,0.1C960.5,149.9,952.2,172.9,948.1,190.1z"/>
		<path d="M990.5,239.1c-2.7,0-4.8-0.3-5.5-1.1c-0.5-0.5-1.9-1.9-3.4-11.6c-0.3-1.6,0.8-3.1,2.5-3.4c1.6-0.3,3.1,0.8,3.4,2.5
			c0.5,3,1.2,6.2,1.7,7.7c0,0,0.1,0,0.1,0c5.6,0,26.9-2.8,32.5-6.7c4.2-3,1.1-12.8-0.3-16c-0.7-1.5,0-3.2,1.5-3.9
			c1.5-0.7,3.2,0,3.9,1.5c0.8,1.7,7.2,16.9-1.7,23.2C1020.2,234.8,1000.5,239.1,990.5,239.1z"/>
		<path d="M1005.1,259.1c-8.4,0-15.9-16-18-21c-0.6-1.5,0.1-3.2,1.6-3.9c1.5-0.6,3.2,0.1,3.9,1.6c3.5,8.2,9.5,17.4,12.5,17.4
			c0,0,0,0,0,0c2.2-0.1,6.7-9.9,9.1-22.1c0.3-1.6,1.9-2.6,3.5-2.3c1.6,0.3,2.6,1.9,2.3,3.5c-1.6,8-6.2,26.7-14.8,26.9
			C1005.2,259.1,1005.2,259.1,1005.1,259.1z"/>
		<path d="M944.7,189.2c-0.2,0-0.3,0-0.5,0c-9.7-1.6-11.1-2.9-11.6-3.4c-3.5-3.5,2.3-33.9,6.6-40.1c6.3-8.9,21.5-2.5,23.2-1.7
			c1.5,0.7,2.2,2.4,1.5,3.9c-0.7,1.5-2.4,2.2-3.9,1.5c-3.2-1.4-13-4.5-16-0.3c-3.9,5.6-6.7,27.1-6.7,32.6c1.7,0.5,5,1.2,7.7,1.7
			c1.6,0.3,2.7,1.8,2.5,3.4C947.4,188.2,946.2,189.2,944.7,189.2z"/>
		<path d="M933.7,183.8c-0.4,0-0.8-0.1-1.2-0.2c-5-2.1-21.2-9.6-21-18.1c0.2-8.6,18.9-13.2,26.9-14.8c1.6-0.3,3.2,0.7,3.5,2.3
			c0.3,1.6-0.7,3.2-2.3,3.5c-12.2,2.4-22,7-22.1,9.1c-0.1,3,9.1,9,17.4,12.5c1.5,0.6,2.2,2.4,1.6,3.9
			C936,183.1,934.9,183.8,933.7,183.8z"/>
	</g>
</g>
</svg>
